<svg width="56" height="56" viewBox="0 0 56 56" fill="none" xmlns="http://www.w3.org/2000/svg">
<path d="M28.8752 47.25H10.4345C10.2125 47.253 9.99217 47.2113 9.78648 47.1278C9.5808 47.0442 9.39394 46.9201 9.23694 46.7631C9.07995 46.6062 8.95598 46.4193 8.87238 46.2136C8.78877 46.008 8.74721 45.7877 8.75015 45.5656V27.125C8.75015 21.7875 10.8705 16.6686 14.6446 12.8945C18.4188 9.1203 23.5377 7 28.8752 7C31.518 7 34.135 7.52056 36.5766 8.53193C39.0184 9.54329 41.2368 11.0257 43.1057 12.8945C44.9745 14.7633 46.4569 16.9818 47.4682 19.4234C48.4796 21.8652 49.0002 24.4821 49.0002 27.125C49.0002 29.7678 48.4796 32.3848 47.4682 34.8266C46.4569 37.2682 44.9745 39.4868 43.1057 41.3555C41.2368 43.2243 39.0184 44.7067 36.5766 45.718C34.135 46.7294 31.518 47.25 28.8752 47.25Z" stroke="white" stroke-width="1.5" stroke-linecap="round" stroke-linejoin="round"/>
<path d="M28.875 30.1875C30.0832 30.1875 31.0625 29.2082 31.0625 28C31.0625 26.7918 30.0832 25.8125 28.875 25.8125C27.6668 25.8125 26.6875 26.7918 26.6875 28C26.6875 29.2082 27.6668 30.1875 28.875 30.1875Z" fill="white"/>
<path d="M39.375 30.1875C40.5832 30.1875 41.5625 29.2082 41.5625 28C41.5625 26.7918 40.5832 25.8125 39.375 25.8125C38.1668 25.8125 37.1875 26.7918 37.1875 28C37.1875 29.2082 38.1668 30.1875 39.375 30.1875Z" fill="white"/>
<path d="M18.375 30.1875C19.5832 30.1875 20.5625 29.2082 20.5625 28C20.5625 26.7918 19.5832 25.8125 18.375 25.8125C17.1669 25.8125 16.1875 26.7918 16.1875 28C16.1875 29.2082 17.1669 30.1875 18.375 30.1875Z" fill="white"/>
</svg>
