<svg width="64" height="64" viewBox="0 0 64 64" fill="none" xmlns="http://www.w3.org/2000/svg">
<path d="M32 38C35.3138 38 38 35.3138 38 32C38 28.6862 35.3138 26 32 26C28.6862 26 26 28.6862 26 32C26 35.3138 28.6862 38 32 38Z" stroke="white" stroke-opacity="0.61" stroke-width="1.5" stroke-linecap="round" stroke-linejoin="round"/>
<path d="M24 20C27.3138 20 30 17.3137 30 14C30 10.6863 27.3138 8 24 8C20.6862 8 18 10.6863 18 14C18 17.3137 20.6862 20 24 20Z" stroke="white" stroke-opacity="0.61" stroke-width="1.5" stroke-linecap="round" stroke-linejoin="round"/>
<path d="M50 32C53.3138 32 56 29.3138 56 26C56 22.6862 53.3138 20 50 20C46.6862 20 44 22.6862 44 26C44 29.3138 46.6862 32 50 32Z" stroke="white" stroke-opacity="0.61" stroke-width="1.5" stroke-linecap="round" stroke-linejoin="round"/>
<path d="M50 52C53.3138 52 56 49.3138 56 46C56 42.6862 53.3138 40 50 40C46.6862 40 44 42.6862 44 46C44 49.3138 46.6862 52 50 52Z" stroke="white" stroke-opacity="0.61" stroke-width="1.5" stroke-linecap="round" stroke-linejoin="round"/>
<path d="M14 54C17.3137 54 20 51.3138 20 48C20 44.6862 17.3137 42 14 42C10.6863 42 8 44.6862 8 48C8 51.3138 10.6863 54 14 54Z" stroke="white" stroke-opacity="0.61" stroke-width="1.5" stroke-linecap="round" stroke-linejoin="round"/>
<path d="M29.5758 26.525L26.4258 19.4751" stroke="white" stroke-opacity="0.61" stroke-width="1.5" stroke-linecap="round" stroke-linejoin="round"/>
<path d="M44.2992 27.9L37.6992 30.1" stroke="white" stroke-opacity="0.61" stroke-width="1.5" stroke-linecap="round" stroke-linejoin="round"/>
<path d="M45.2766 42.3248L36.7266 35.6748" stroke="white" stroke-opacity="0.61" stroke-width="1.5" stroke-linecap="round" stroke-linejoin="round"/>
<path d="M27.5266 35.975L18.4766 44.0252" stroke="white" stroke-opacity="0.61" stroke-width="1.5" stroke-linecap="round" stroke-linejoin="round"/>
</svg>
