<svg width="246" height="246" viewBox="0 0 246 246" fill="none" xmlns="http://www.w3.org/2000/svg">
<path d="M89.5594 118.003C86.2268 109.827 84.5294 101.078 84.5625 92.25C84.5625 78.5662 88.62 65.1893 96.2229 53.8115C103.825 42.4337 114.631 33.5658 127.273 28.3291C139.916 23.0925 153.827 21.7223 167.248 24.392C180.669 27.0615 192.997 33.651 202.673 43.327C212.349 53.0032 218.938 65.3311 221.608 78.7523C224.277 92.1731 222.908 106.084 217.671 118.727C212.434 131.369 203.567 142.175 192.188 149.777C180.811 157.38 167.434 161.437 153.75 161.437C144.922 161.471 136.173 159.773 127.997 156.441L115.312 169.125H92.25V192.187H69.1875V215.25H30.75V176.812L89.5594 118.003Z" stroke="white" stroke-width="1.5" stroke-linecap="round" stroke-linejoin="round"/>
<path d="M172.969 82.6406C178.276 82.6406 182.578 78.3387 182.578 73.0312C182.578 67.7241 178.276 63.4219 172.969 63.4219C167.661 63.4219 163.359 67.7241 163.359 73.0312C163.359 78.3387 167.661 82.6406 172.969 82.6406Z" fill="white"/>
</svg>
