<svg width="26" height="15" viewBox="0 0 26 15" fill="none" xmlns="http://www.w3.org/2000/svg">
<path d="M6.01172 14.1846C4.71973 14.1846 3.66699 13.959 2.85352 13.5078C2.04004 13.0498 1.44531 12.4209 1.06934 11.6211C0.693359 10.8145 0.505371 9.89844 0.505371 8.87305V0.198242H2.37158V8.64746C2.37158 10.083 2.68262 11.1084 3.30469 11.7236C3.93359 12.332 4.83936 12.6362 6.02197 12.6362C7.21143 12.6362 8.11719 12.332 8.73926 11.7236C9.36133 11.1084 9.67236 10.083 9.67236 8.64746V0.198242H11.5386V8.87305C11.5386 9.89844 11.3506 10.8145 10.9746 11.6211C10.5986 12.4209 10.0039 13.0498 9.19043 13.5078C8.38379 13.959 7.32422 14.1846 6.01172 14.1846ZM14.9941 14V0.198242H16.8398V6.83252L22.5103 0.198242H24.6226L18.8906 6.70947L25.1045 14H22.8384L16.8398 6.91455V14H14.9941Z" fill="black"/>
</svg>
