<svg width="60" height="60" viewBox="0 0 60 60" fill="none" xmlns="http://www.w3.org/2000/svg">
<path d="M52.8516 29.9999H45.3516C44.3571 29.9999 43.4033 30.3949 42.6999 31.0982C41.9966 31.8016 41.6016 32.7554 41.6016 33.7499V43.1249C41.6016 44.1196 41.9966 45.0734 42.6999 45.7765C43.4033 46.4798 44.3571 46.8749 45.3516 46.8749H49.1016C50.0961 46.8749 51.0499 46.4798 51.7532 45.7765C52.4565 45.0734 52.8516 44.1196 52.8516 43.1249V29.9999ZM52.8516 29.9999C52.8517 27.0293 52.2636 24.0882 51.1211 21.346C49.9787 18.6039 48.3045 16.1151 46.1953 14.0234C44.0861 11.9316 41.5836 10.2782 38.832 9.15851C36.0804 8.03888 33.1346 7.47518 30.1641 7.49993C27.1956 7.47827 24.252 8.04428 21.5033 9.16532C18.7545 10.2863 16.2547 11.9403 14.148 14.0317C12.0413 16.1232 10.3692 18.6109 9.22826 21.3514C8.08729 24.0921 7.49993 27.0314 7.5 29.9999M7.5 29.9999V43.1249C7.5 44.1196 7.89508 45.0734 8.59836 45.7765C9.30161 46.4798 10.2554 46.8749 11.25 46.8749H15C15.9946 46.8749 16.9484 46.4798 17.6516 45.7765C18.3549 45.0734 18.75 44.1196 18.75 43.1249V33.7499C18.75 32.7554 18.3549 31.8016 17.6516 31.0982C16.9484 30.3949 15.9946 29.9999 15 29.9999H7.5Z" stroke="black" stroke-width="1.5" stroke-linecap="round" stroke-linejoin="round"/>
<path d="M52.8516 43.125V48.75C52.8516 50.7392 52.0614 52.6468 50.6548 54.0532C49.2484 55.4599 47.3407 56.25 45.3516 56.25H31.875" stroke="black" stroke-width="1.5" stroke-linecap="round" stroke-linejoin="round"/>
</svg>
