<svg width="25" height="25" viewBox="0 0 25 25" fill="none" xmlns="http://www.w3.org/2000/svg">
<path d="M22.2754 11.836L8.22266 3.24227C8.10437 3.1693 7.96875 3.12921 7.82977 3.12614C7.69081 3.12306 7.55355 3.15711 7.43214 3.22479C7.31073 3.29246 7.20958 3.39129 7.1391 3.5111C7.06863 3.6309 7.03141 3.76734 7.03125 3.90633V21.0938C7.03141 21.2328 7.06863 21.3693 7.1391 21.4891C7.20958 21.6089 7.31073 21.7077 7.43214 21.7754C7.55355 21.843 7.69081 21.8771 7.82977 21.8741C7.96875 21.8709 8.10437 21.8308 8.22266 21.7579L22.2754 13.1641C22.3908 13.0959 22.4864 12.9988 22.5528 12.8823C22.6192 12.7658 22.6542 12.6341 22.6542 12.5001C22.6542 12.366 22.6192 12.2343 22.5528 12.1178C22.4864 12.0014 22.3908 11.9043 22.2754 11.836Z" stroke="black" stroke-linecap="round" stroke-linejoin="round"/>
</svg>
