<svg width="70" height="70" viewBox="0 0 70 70" fill="none" xmlns="http://www.w3.org/2000/svg">
<path d="M59.0625 19.6875H10.9375C9.72939 19.6875 8.75 20.6669 8.75 21.875V56.875C8.75 58.0832 9.72939 59.0625 10.9375 59.0625H59.0625C60.2707 59.0625 61.25 58.0832 61.25 56.875V21.875C61.25 20.6669 60.2707 19.6875 59.0625 19.6875Z" stroke="black" stroke-width="1.5" stroke-linecap="round" stroke-linejoin="round"/>
<path d="M45.9375 19.6875V15.3125C45.9375 14.1522 45.4766 13.0394 44.6561 12.2189C43.8355 11.3984 42.7227 10.9375 41.5625 10.9375H28.4375C27.2773 10.9375 26.1645 11.3984 25.3439 12.2189C24.5234 13.0394 24.0625 14.1522 24.0625 15.3125V19.6875" stroke="black" stroke-width="1.5" stroke-linecap="round" stroke-linejoin="round"/>
<path d="M61.25 34.5354C53.272 39.1495 44.2164 41.5737 35 41.5627C25.7821 41.5868 16.7231 39.1615 8.75 34.5354" stroke="black" stroke-width="1.5" stroke-linecap="round" stroke-linejoin="round"/>
<path d="M31.7188 32.8125H38.2812" stroke="black" stroke-width="1.5" stroke-linecap="round" stroke-linejoin="round"/>
</svg>
