<svg width="147" height="147" viewBox="0 0 147 147" fill="none" xmlns="http://www.w3.org/2000/svg">
<path d="M91.875 50.5312H27.5625C25.0255 50.5312 22.9688 52.5879 22.9688 55.125V119.438C22.9688 121.975 25.0255 124.031 27.5625 124.031H91.875C94.4121 124.031 96.4688 121.975 96.4688 119.438V55.125C96.4688 52.5879 94.4121 50.5312 91.875 50.5312Z" stroke="black" stroke-width="2.5" stroke-linecap="round" stroke-linejoin="round"/>
<path d="M91.875 22.9688H82.6875" stroke="black" stroke-width="2.5" stroke-linecap="round" stroke-linejoin="round"/>
<path d="M114.844 22.9688H119.438C120.656 22.9688 121.824 23.4527 122.686 24.3142C123.547 25.1757 124.031 26.3441 124.031 27.5625V32.1562" stroke="black" stroke-width="2.5" stroke-linecap="round" stroke-linejoin="round"/>
<path d="M124.031 64.3125V55.125" stroke="black" stroke-width="2.5" stroke-linecap="round" stroke-linejoin="round"/>
<path d="M114.844 96.4688H119.438C120.656 96.4688 121.824 95.9846 122.686 95.1232C123.547 94.2619 124.031 93.0933 124.031 91.875V87.2812" stroke="black" stroke-width="2.5" stroke-linecap="round" stroke-linejoin="round"/>
<path d="M59.7188 22.9688H55.125C53.9067 22.9688 52.7381 23.4527 51.8768 24.3142C51.0154 25.1757 50.5312 26.3441 50.5312 27.5625V32.1562" stroke="black" stroke-width="2.5" stroke-linecap="round" stroke-linejoin="round"/>
</svg>
